            <svg
              version="1.0"
              xmlns="http://www.w3.org/2000/svg"
              width="300.000000pt"
              height="300.000000pt"
              viewBox="0 0 300.000000 300.000000"
              preserveAspectRatio="xMidYMid meet"
            >
              <g
                transform="translate(0.000000,300.000000) scale(0.100000,-0.100000)"
                fill="#000000"
                stroke="none"
              >
                <path
                  d="M1205 2970 c-280 -56 -530 -188 -742 -393 -216 -209 -344 -434 -421
-737 -25 -98 -27 -120 -27 -330 0 -251 9 -313 72 -495 176 -506 605 -876 1138
-981 129 -26 405 -26 540 0 303 57 565 195 785 415 214 214 349 461 412 754
29 137 32 445 5 580 -123 609 -606 1088 -1203 1192 -126 22 -440 19 -559 -5z
m180 -19 c-36 -13 -50 -23 -50 -37 0 -14 -8 -20 -30 -22 -59 -5 -181 -35 -265
-64 -173 -61 -352 -170 -482 -293 -63 -59 -64 -60 -91 -45 -15 8 -27 18 -27
22 0 3 32 36 72 73 151 139 333 246 532 311 109 35 291 72 356 72 34 0 34 0
-15 -17z m346 -1 c297 -53 546 -175 764 -373 l70 -64 -34 -17 -33 -17 -56 54
c-189 179 -484 326 -717 355 -54 6 -60 9 -60 31 0 18 -8 27 -35 37 -50 18 -29
17 101 -6z m-146 -7 c88 -27 69 -53 -27 -37 -28 5 -37 12 -41 30 -5 29 -3 29
68 7z m-99 -10 c-1 -18 -41 -31 -98 -32 -45 -1 -32 15 25 31 70 21 75 21 73 1z
m-4 -225 c2 -95 3 -174 2 -175 0 -1 -28 12 -62 30 l-62 32 0 137 0 137 33 4
c17 2 44 5 59 5 l27 2 3 -172z m136 162 c22 0 22 -2 22 -133 l0 -133 -55 -27
c-31 -15 -59 -27 -63 -27 -4 0 -6 75 -4 166 l3 166 37 -6 c20 -3 47 -6 60 -6z
m-286 -137 c-2 -76 -6 -141 -10 -145 -4 -4 -119 -69 -256 -146 l-249 -139 -77
43 c-43 23 -110 59 -149 79 l-71 35 67 62 c182 164 403 278 643 329 47 9 90
18 95 18 6 1 9 -49 7 -136z m595 72 c172 -57 323 -144 466 -270 l78 -67 -145
-78 -145 -78 -113 64 c-62 35 -177 99 -255 141 l-141 78 -4 133 c-2 74 -2 135
0 137 7 7 168 -30 259 -60z m41 -407 l183 -101 -52 -28 -51 -28 -255 141 -255
142 53 26 54 26 70 -38 c39 -21 152 -84 253 -140z m-558 139 l52 -23 -148 -81
c-82 -45 -196 -108 -254 -141 l-105 -59 -52 25 c-29 14 -51 28 -49 30 11 11
483 271 492 272 6 0 35 -10 64 -23z m-940 -88 c0 -3 -9 -14 -20 -24 -20 -18
-21 -18 -45 5 -23 22 -24 25 -9 41 14 16 17 16 45 1 16 -10 29 -20 29 -23z
m1344 -112 c180 -100 196 -112 180 -124 -41 -30 -58 -25 -193 54 -112 66 -144
90 -200 153 -64 72 -65 73 -26 51 22 -13 129 -73 239 -134z m782 136 c11 -15
9 -21 -8 -40 -27 -29 -32 -29 -52 2 -15 23 -15 25 11 39 35 19 33 19 49 -1z
m-1197 -64 c-52 -58 -88 -85 -198 -150 -138 -82 -154 -86 -195 -56 -18 13 -11
18 85 72 57 32 160 91 229 130 69 40 129 73 133 74 5 0 -20 -31 -54 -70z m184
-11 l57 -71 0 -151 0 -151 -59 -32 c-33 -18 -61 -33 -63 -33 -2 0 -3 115 -3
255 0 140 2 255 5 254 3 0 31 -32 63 -71z m-98 -193 c0 -140 -3 -254 -6 -252
-3 1 -31 16 -62 32 l-57 30 0 153 0 153 58 69 c31 38 59 69 62 69 3 1 5 -114
5 -254z m-415 -69 l405 -215 5 -80 c3 -45 4 -81 4 -81 -1 0 -188 98 -417 218
l-415 218 -100 95 -101 96 26 26 26 25 81 -43 c45 -24 263 -141 486 -259z
m1447 276 l21 -28 -97 -91 c-97 -91 -97 -91 -508 -307 -227 -119 -413 -216
-415 -216 -2 0 -2 36 0 80 l3 79 122 64 c315 165 813 431 822 438 16 15 31 10
52 -19z m-2142 -26 c14 -33 14 -35 -31 -103 -104 -154 -193 -381 -216 -552
-13 -92 -13 -94 -50 -117 -21 -13 -39 -24 -41 -24 -6 0 11 130 28 215 39 195
136 408 265 583 13 17 25 32 27 32 2 0 10 -15 18 -34z m2332 -58 c136 -205
220 -432 248 -671 l7 -58 -40 26 c-39 26 -40 28 -57 123 -32 184 -109 378
-212 534 -42 64 -44 70 -33 103 6 19 15 35 19 35 3 0 34 -42 68 -92z m-2089
-567 l2 -432 -41 29 -42 29 1 346 2 347 -59 135 c-32 74 -56 137 -53 140 3 2
46 -33 96 -79 l91 -84 3 -431z m1952 590 c0 -6 -25 -67 -55 -137 l-55 -127 3
-348 2 -347 -41 -26 c-23 -14 -43 -26 -45 -26 -2 0 -3 192 -1 427 l2 428 88
82 c85 80 102 92 102 74z m-2060 -376 l0 -100 -177 -107 c-128 -77 -179 -102
-181 -92 -6 23 37 209 65 288 31 88 103 230 150 302 l36 54 53 -122 c53 -122
54 -124 54 -223z m2201 145 c22 -45 54 -120 70 -167 26 -79 73 -272 67 -278
-2 -2 -83 45 -180 103 l-178 107 0 98 c0 96 1 100 52 218 l52 120 38 -60 c20
-33 56 -96 79 -141z m-921 119 l121 -72 -121 -63 c-67 -35 -123 -64 -123 -64
-1 0 -2 61 -2 135 0 74 1 135 1 135 1 0 57 -32 124 -71z m-455 -74 c0 -74 -1
-135 -2 -135 -1 0 -50 26 -110 58 -60 32 -115 61 -123 64 -12 4 -11 7 5 17
150 89 221 130 225 131 3 0 5 -61 5 -135z m1013 -61 l-3 -65 -347 -177 -348
-176 0 -419 c0 -346 2 -417 13 -410 153 92 1147 717 1147 722 -1 3 -72 49
-160 101 l-160 95 0 38 0 38 38 -23 c21 -13 102 -61 180 -107 l141 -85 6 -62
c4 -33 5 -69 4 -79 -3 -12 -241 -166 -667 -432 -365 -227 -667 -413 -670 -413
-4 0 -6 244 -4 543 l2 542 342 180 c188 99 371 196 407 216 36 20 70 37 74 38
4 0 7 -29 5 -65z m-1275 -162 l407 -214 2 -544 c2 -299 0 -544 -3 -544 -4 0
-91 53 -195 118 -104 65 -404 252 -666 416 l-478 297 0 73 0 73 183 110 c174
106 182 109 185 86 2 -14 1 -30 -1 -38 -3 -7 -78 -56 -167 -110 l-161 -98 38
-22 c21 -12 278 -171 572 -354 294 -183 540 -335 548 -338 11 -4 13 67 13 411
l0 416 -350 175 -350 175 0 66 c0 36 4 64 8 62 5 -1 191 -99 415 -216z m1277
-276 l0 -343 -55 -37 -55 -36 0 349 0 350 53 29 c28 16 53 30 55 31 1 0 2
-154 2 -343z m-1590 -72 l0 -353 -55 36 -55 36 0 343 0 344 55 -27 55 -27 0
-352z m210 0 l0 -242 -67 -38 c-38 -20 -78 -44 -90 -52 l-23 -14 0 340 0 341
90 -47 90 -46 0 -242z m1240 0 l0 -335 -57 32 c-32 17 -73 41 -90 51 l-33 20
0 242 0 242 83 41 c45 23 85 42 90 42 4 1 7 -150 7 -335z m-213 -210 c-2 -2
-28 9 -58 25 l-54 30 3 169 3 168 52 26 52 25 3 -220 c1 -121 1 -222 -1 -223z
m-940 409 l53 -28 0 -167 0 -168 -52 -30 c-29 -16 -55 -30 -58 -30 -3 0 -5
101 -5 225 0 124 2 225 5 225 3 0 28 -12 57 -27z m799 -330 c-2 -3 -43 17 -90
43 l-86 48 0 58 0 58 88 44 87 44 3 -146 c1 -79 1 -147 -2 -149z m-618 239
l82 -42 0 -58 0 -57 -82 -45 c-46 -25 -86 -46 -90 -48 -5 -2 -8 65 -8 148 0
83 3 150 8 148 4 -2 44 -22 90 -46z m1410 -57 l113 -69 -30 -18 -30 -19 -105
58 -106 58 0 44 c0 43 0 43 23 29 12 -8 73 -45 135 -83z m-2140 43 l-3 -43
-102 -57 -102 -58 -31 19 -31 18 128 81 c70 44 132 80 136 81 5 1 7 -18 5 -41z
m2008 -77 c5 -5 42 -27 83 -49 l73 -40 -53 -34 c-30 -19 -71 -44 -91 -57 l-38
-23 0 106 c0 101 4 117 26 97z m-2006 -107 l0 -106 -27 18 c-16 10 -56 36 -91
57 l-63 40 83 47 c46 26 86 48 91 49 4 1 7 -47 7 -105z m2416 85 c19 -11 34
-27 34 -34 0 -11 -57 -55 -71 -55 -6 0 -8 110 -2 110 3 0 21 -9 39 -21z
m-2816 -44 l0 -56 -40 23 c-22 13 -40 28 -40 33 0 8 63 52 78 55 1 0 2 -25 2
-55z m1825 -168 c105 -58 207 -113 228 -123 20 -10 37 -20 37 -23 0 -3 -25
-21 -54 -38 l-53 -33 -207 116 -206 116 0 65 0 65 33 -20 c17 -11 118 -67 222
-125z m-615 69 l0 -63 -207 -114 -207 -115 -53 31 c-29 16 -52 32 -52 35 0 4
508 289 517 290 1 0 2 -29 2 -64z m1605 24 c-30 -31 -45 -38 -45 -20 0 9 57
50 69 50 3 0 -8 -13 -24 -30z m-2836 1 c13 -10 22 -23 20 -30 -3 -7 -16 0 -34
19 -32 33 -24 40 14 11z m2867 -88 c-25 -309 -156 -614 -366 -853 -241 -273
-603 -454 -970 -485 l-75 -6 60 35 c43 24 91 41 162 55 56 12 141 35 190 52
398 141 721 472 858 881 32 98 65 251 65 307 0 16 13 39 38 63 20 20 39 37 41
38 2 0 1 -39 -3 -87z m-2872 37 c26 -29 36 -49 36 -74 0 -59 30 -193 66 -299
103 -296 291 -540 549 -714 141 -95 346 -179 504 -207 72 -13 207 -76 181 -84
-19 -7 -184 19 -285 44 -189 47 -392 149 -550 274 -93 74 -233 225 -297 321
-75 111 -160 290 -193 404 -39 135 -75 375 -56 375 5 0 25 -18 45 -40z m728
-404 c351 -218 645 -399 653 -402 13 -5 15 -35 15 -191 l0 -184 -67 3 -67 3 3
161 3 160 -520 338 c-407 265 -537 354 -605 417 -56 51 -87 88 -87 101 0 19 2
20 18 6 9 -8 304 -194 654 -412z m2048 410 c0 -8 -40 -52 -90 -98 -72 -67
-188 -147 -605 -418 l-516 -335 3 -163 3 -162 -52 0 c-28 0 -59 -3 -67 -6 -15
-6 -16 13 -14 181 l3 187 660 413 c363 227 663 413 668 414 4 1 7 -5 7 -13z
m-902 -224 l105 -55 -29 -24 c-16 -12 -32 -22 -35 -20 -4 1 -77 40 -162 87
l-156 85 -1 42 0 41 87 -50 c48 -27 134 -75 191 -106z m882 87 c-20 -114 -59
-248 -94 -325 -123 -264 -374 -488 -690 -614 -82 -32 -243 -75 -321 -85 l-50
-7 1 152 1 152 89 58 c49 32 171 112 271 178 l182 119 3 -76 3 -76 60 -32 c33
-18 65 -33 70 -33 6 0 38 23 73 51 l62 51 1 147 0 146 110 70 c60 39 137 98
171 132 34 34 64 61 66 59 2 -2 -2 -33 -8 -67z m-2442 -139 l102 -65 0 -147 0
-146 67 -53 66 -53 66 36 66 36 3 75 3 75 270 -176 271 -177 2 -153 c1 -121
-2 -152 -12 -152 -8 0 -58 9 -112 20 -431 88 -805 369 -949 713 -37 89 -77
233 -87 314 l-7 58 75 -70 c41 -39 120 -99 176 -135z m915 120 c-4 -4 -76 -46
-159 -93 l-152 -85 -27 18 c-15 10 -26 21 -25 26 1 5 84 54 184 110 l181 101
3 -35 c2 -19 0 -38 -5 -42z m4 -367 c-3 -3 -256 150 -284 171 -1 1 53 32 120
68 67 37 131 74 142 82 20 14 20 12 23 -151 1 -91 1 -168 -1 -170z m512 258
l141 -78 -88 -53 c-48 -29 -113 -70 -144 -91 l-58 -38 0 169 c0 94 2 170 4
170 3 0 68 -35 145 -79z m641 -218 l-1 -128 -44 -38 -45 -38 0 138 0 138 43
27 c23 15 43 28 45 28 1 0 2 -57 2 -127z m-1890 91 l40 -27 0 -139 0 -139 -45
38 -44 38 -1 128 c0 70 2 127 5 127 3 0 23 -12 45 -26z m115 -76 l45 -32 0
-76 0 -76 -45 -22 -45 -22 0 108 c0 59 -3 117 -6 130 -8 29 -3 28 51 -10z
m1657 -94 c-2 -69 -6 -124 -10 -122 -4 2 -24 12 -44 23 l-38 19 0 76 0 77 38
25 c20 14 42 26 47 27 6 1 9 -45 7 -125z m123 -315 c-146 -148 -353 -280 -539
-344 -90 -30 -242 -65 -250 -57 -3 3 -6 23 -6 44 0 35 2 38 28 38 49 0 235 47
337 85 163 60 300 140 424 249 36 31 67 56 70 56 3 0 -26 -32 -64 -71z m-1927
-8 c174 -148 404 -255 655 -303 l117 -23 0 -38 c0 -34 -2 -37 -22 -32 -340 74
-534 172 -753 378 -82 77 -79 89 3 18z m932 -372 c0 -44 -4 -45 -94 -33 -44 6
-46 8 -46 39 0 17 2 34 4 36 2 2 34 2 70 1 l66 -4 0 -39z m180 12 c0 -38 0
-38 -46 -45 -92 -12 -94 -11 -94 39 l0 45 70 0 70 0 0 -39z m-200 -81 c20 0
25 -5 26 -25 2 -32 -7 -31 -56 1 -45 30 -50 39 -17 30 12 -3 33 -6 47 -6z
m140 6 c0 -6 -70 -46 -81 -46 -24 0 -2 36 26 41 40 9 55 10 55 5z"
                />
              </g>
            </svg>